<?xml version="1.0" encoding="UTF-8"?>
<svg width="100px" height="56px" viewBox="0 0 100 56" version="1.1" xmlns="http://www.w3.org/2000/svg" xmlns:xlink="http://www.w3.org/1999/xlink">
    <!-- Generator: Sketch 57.1 (83088) - https://sketch.com -->
    <title>logo_dark_large</title>
    <desc>Created with Sketch.</desc>
    <g id="Page-1" stroke="none" stroke-width="1" fill="none" fill-rule="evenodd">
        <g id="logo_dark_large" transform="translate(-0.097656, 0.097656)" fill-rule="nonzero">
            <g id="layer101" transform="translate(0.000000, 15.332031)" fill="#085296">
                <path d="M29.2480469,39.9414062 C27.3828125,39.6484375 25.7519531,38.4863281 24.9804687,36.9140625 C24.21875,35.3515625 24.1308594,33.6621094 24.7265625,31.8359375 C25.6933594,28.8476562 28.5546875,26.3085937 31.6113281,25.7226562 C35.1855469,25.0390625 38.2421875,26.9140625 38.90625,30.1953125 C39.1015625,31.1328125 39.1015625,31.5820312 38.9160156,32.6660156 C38.6425781,34.1992187 37.8320312,35.8105469 36.6796875,37.0800781 C35.625,38.2421875 33.7792969,39.3652344 32.265625,39.7460937 C31.3769531,39.9707031 30.0390625,40.0585937 29.2480469,39.9414062 Z M32.4609375,35.3125 C33.984375,34.609375 34.8925781,32.8417969 34.4335938,31.4648438 C34.2382812,30.8886719 33.6230469,30.2636719 33.0566406,30.078125 C32.5585938,29.9121094 31.5039062,30 30.9277344,30.2539062 C30.6738281,30.3613281 30.2246094,30.6835938 29.9316406,30.9667969 C28.2226562,32.5878906 28.5351562,35.0390625 30.5175781,35.5566406 C30.9863281,35.6835938 31.9238281,35.5664062 32.4609375,35.3125 Z" id="Shape"></path>
                <path d="M57.5488281,39.9414062 C56.2988281,39.8046875 55.3710938,39.5605469 55.3710938,39.375 C55.3710938,39.1503906 56.1132812,35.4589844 56.1621094,35.4101562 C56.1816406,35.390625 56.5722656,35.4492188 57.03125,35.5566406 C57.4902344,35.6542969 58.2519531,35.7421875 58.7207031,35.7421875 C59.5019531,35.7421875 59.5996094,35.7226562 59.8144531,35.4980469 C60.234375,35.0878906 60.1464844,34.921875 58.9355469,33.6816406 C57.265625,31.9726562 56.8945312,31.0253906 57.265625,29.3652344 C57.7734375,27.109375 59.9023438,25.5859375 62.5390625,25.5859375 C63.2519531,25.5859375 64.921875,25.7421875 65.1953125,25.8300781 C65.2636719,25.8496094 65.1757812,26.484375 64.9316406,27.7539062 C64.7265625,28.7890625 64.5605469,29.6582031 64.5507812,29.6875 C64.5507812,29.7167969 64.1113281,29.7167969 63.5839844,29.7070312 C62.7050781,29.6777344 62.5976562,29.6875 62.4121094,29.8730469 C62.2949219,29.9902344 62.2070312,30.1269531 62.2070312,30.1757812 C62.2070312,30.234375 62.6464844,30.7324219 63.1835938,31.2988281 C64.6972656,32.8710938 65.1367188,34.0332031 64.8242188,35.625 C64.4042969,37.7441406 62.9785156,39.2480469 60.8691406,39.7851562 C60.1367187,39.9804688 58.4960938,40.0585938 57.5488281,39.9414062 Z" id="Path"></path>
                <path d="M0.126953125,39.3359375 C0.15625,39.1601563 0.751953125,36.09375 1.45507812,32.5195313 C2.15820312,28.9453125 2.734375,25.9960938 2.734375,25.9570313 C2.734375,25.8203125 8.58398438,25.8789063 9.38476562,26.015625 C10.3027344,26.1816406 10.9765625,26.5234375 11.4941406,27.0703125 C12.0214844,27.6464844 12.1386719,28.0566406 12.0898438,29.0917969 C12.0410156,30.0976563 11.6894531,30.9667969 11.0351562,31.6796875 L10.625,32.1289063 L10.9375,32.4902344 C11.5722656,33.2128906 11.7773438,34.1015625 11.5820312,35.2539063 C11.2402344,37.1875 9.93164062,38.671875 7.97851563,39.3261719 L7.17773438,39.5898438 L3.62304688,39.6289063 L0.078125,39.6582031 L0.126953125,39.3359375 Z M6.50390625,36.1425781 C6.94335938,35.9375 7.2265625,35.4785156 7.2265625,34.9609375 C7.2265625,34.53125 7.08984375,34.3164062 6.72851562,34.1894531 C6.43554688,34.0917969 5.46875,34.0332031 5.46875,34.1210938 C5.46875,34.140625 5.38085938,34.5898438 5.2734375,35.1074219 C5.16601562,35.625 5.078125,36.1132812 5.078125,36.1914062 C5.078125,36.3964844 6.015625,36.3671875 6.50390625,36.1425781 Z M7.21679688,30.8398438 C7.4609375,30.6933594 7.71484375,30.1855469 7.71484375,29.8632812 C7.71484375,29.4238281 7.49023438,29.2578125 6.92382813,29.2480469 L6.40625,29.2480469 L6.2890625,29.8339844 C6.23046875,30.15625 6.15234375,30.5664062 6.11328125,30.7519531 L6.0546875,31.0839844 L6.53320313,31.0253906 C6.796875,30.9960937 7.109375,30.9082031 7.21679688,30.8398438 Z" id="Shape"></path>
                <path d="M11.6210938,39.5605469 C11.6210938,39.453125 14.1308594,26.4746094 14.2285156,26.09375 L14.2871094,25.859375 L17.3242188,25.9082031 C20.6054688,25.9570312 20.9375,25.9960937 22.0703125,26.5429688 C22.7832031,26.8945312 23.5742188,27.6953125 23.90625,28.3886719 C24.140625,28.90625 24.1699219,29.0527344 24.1601562,30.1757812 C24.1601562,31.1914062 24.1210938,31.5039062 23.9355469,32.03125 C23.5449219,33.1445312 22.6757812,34.3359375 21.8359375,34.9316406 L21.5429688,35.1269531 L22.1679688,36.7773438 C22.5097656,37.6855469 22.890625,38.7011719 23.0078125,39.0429687 L23.2421875,39.6484375 L18.0175781,39.6484375 L17.3828125,38.0371094 C17.03125,37.1484375 16.7285156,36.4257812 16.6992188,36.4257812 C16.6699219,36.4257812 16.5136719,37.1386719 16.3476562,38.0175781 L16.0546875,39.5996094 L13.8378906,39.6289062 C12.4707031,39.6386719 11.6210938,39.6191406 11.6210938,39.5605469 Z M18.8769531,32.3046875 C19.5507812,31.9335938 19.9414062,30.859375 19.6191406,30.2539062 C19.4824219,30 18.7890625,29.6875 18.3398438,29.6875 C18.1347656,29.6875 17.96875,29.7070312 17.96875,29.7265625 C17.96875,29.7753906 17.4902344,32.1289062 17.4316406,32.4121094 C17.3730469,32.6464844 17.3828125,32.6464844 17.9199219,32.5878906 C18.2128906,32.5585938 18.6425781,32.4316406 18.8769531,32.3046875 Z" id="Shape"></path>
                <path d="M41.2597656,39.3359375 C41.1914062,38.9355469 39.453125,26.0839844 39.453125,25.9667969 C39.453125,25.9179687 40.46875,25.8789062 41.7871094,25.8789062 L44.1210938,25.8789062 L44.1699219,26.1035156 C44.1992188,26.2207031 44.3457031,27.2753906 44.4921875,28.4375 C44.6386719,29.609375 44.7851562,30.5371094 44.8046875,30.5175781 C44.8339844,30.4882812 45.390625,29.453125 46.0449219,28.203125 L47.2265625,25.9277344 L48.75,25.8984375 C50.2636719,25.8789062 50.2734375,25.8789062 50.3222656,26.09375 C50.3515625,26.2207031 50.4980469,27.2558594 50.6445312,28.3984375 C50.7910156,29.53125 50.9375,30.46875 50.9667969,30.46875 C51.0058594,30.46875 51.5625,29.4433594 52.2070312,28.1933594 L53.3984375,25.9277344 L55.7617188,25.8984375 C57.0996094,25.8886719 58.1054688,25.9082031 58.0859375,25.9570312 C58.0761719,26.0058594 56.4550781,29.1113281 54.4921875,32.8515625 L50.9277344,39.6484375 L49.2089844,39.6484375 C47.5,39.6484375 47.4804688,39.6484375 47.4316406,39.4335937 C47.4023438,39.3066406 47.2851562,38.4667969 47.1582031,37.5488281 C47.0410156,36.640625 46.9140625,35.859375 46.8847656,35.8203125 C46.8457031,35.78125 46.3574219,36.6210938 45.8007812,37.6953125 L44.7753906,39.6484375 L41.3183594,39.6484375 L41.2597656,39.3359375 Z" id="Path"></path>
                <path d="M64.9414062,39.53125 C64.9414062,39.4140625 67.4121094,26.5820312 67.5292969,26.1035156 L67.578125,25.8789062 L71.6308594,25.8789062 C73.8574219,25.8789062 75.6835938,25.9082031 75.6835938,25.9570312 C75.6835938,25.9960938 75.5273438,26.8164063 75.3417969,27.7832031 C75.15625,28.75 75,29.5507813 75,29.5703125 C75,29.5800781 74.1699219,29.5898438 73.1542969,29.5898438 L71.2988281,29.5898438 L71.1914062,30.15625 C71.1328125,30.4589844 71.0546875,30.7910156 71.0351562,30.8886719 C70.9863281,31.0449219 71.1132812,31.0546875 72.7929688,31.0546875 C73.7890625,31.0546875 74.609375,31.0839844 74.609375,31.1328125 C74.609375,31.171875 74.4726562,31.9335938 74.296875,32.8417969 L73.984375,34.4726562 L70.3417969,34.4726562 L70.234375,35.0976562 C70.0390625,36.1328125 69.8632812,36.0351562 71.9726562,36.0351562 L73.828125,36.0351562 L73.828125,36.2597656 C73.8183594,36.3769531 73.671875,37.1777344 73.5058594,38.0371094 L73.1835938,39.5996094 L69.0625,39.6289062 C65.8007812,39.6484375 64.9414062,39.6289062 64.9414062,39.53125 Z" id="Path"></path>
                <path d="M8.15429688,23.1347656 C6.58203125,23.046875 3.92578125,22.5878906 3.68164062,22.3632812 C3.61328125,22.3046875 4.8046875,15.9375 4.921875,15.7421875 C4.95117188,15.6933594 5.29296875,15.7421875 5.68359375,15.8398437 C7.65625,16.3476562 9.91210938,16.5039062 10.5175781,16.1816406 C10.9375,15.9570312 11.1328125,15.6542969 11.1328125,15.234375 C11.1328125,14.765625 10.9472656,14.53125 9.3359375,12.9785156 C7.7734375,11.484375 7.16796875,10.6347656 6.76757812,9.43359375 C6.2109375,7.71484375 6.5625,5.47851562 7.66601562,3.75 C8.359375,2.66601563 9.51171875,1.640625 10.7128906,1.03515625 C11.2597656,0.76171875 12.578125,0.29296875 12.9882812,0.234375 C13.984375,0.078125 15.2929687,6.9388939e-18 15.8691406,0.048828125 C17.2851562,0.166015625 19.4140625,0.419921875 19.5117188,0.478515625 C19.5703125,0.517578125 19.3847656,1.6796875 19.0136719,3.62304687 L18.4179687,6.70898437 L16.8847656,6.69921875 C15.46875,6.68945312 15.3320312,6.70898437 15.0683594,6.89453125 C14.5117187,7.31445313 14.5898438,7.48046875 16.1425781,9.0625 C17.65625,10.625 18.1933594,11.3964844 18.6132812,12.5976562 C19.0234375,13.7597656 19.1015625,14.6582031 18.9160156,15.7910156 C18.4472656,18.671875 17.0019531,20.78125 14.6582031,22.0019531 C12.8222656,22.9589844 10.9179688,23.2910156 8.15429688,23.1347656 Z" id="Path"></path>
                <path d="M19.9707031,22.5585938 C19.9414062,22.5097656 20.8691406,17.5390625 22.0410156,11.5234375 L24.1601562,0.5859375 L27.8027344,0.5859375 C29.8046875,0.5859375 31.4453125,0.595703125 31.4453125,0.615234375 C31.4453125,0.625 31.25,1.640625 31.0058594,2.87109375 C30.7617188,4.11132812 30.5664062,5.16601563 30.5664062,5.22460938 C30.5664062,5.28320312 31.6503906,4.26757812 32.9882812,2.95898438 L35.4003906,0.595703125 L39.7753906,0.5859375 L44.1503906,0.5859375 L43.9257812,0.869140625 C43.7988281,1.015625 41.640625,3.28125 39.1113281,5.8984375 C36.5917969,8.515625 34.53125,10.6835937 34.5410156,10.7226563 C34.5507812,10.7617188 35.8300781,13.4082031 37.3925781,16.6015625 C38.9550781,19.7949219 40.234375,22.4707031 40.234375,22.5390625 C40.234375,22.6367188 39.3457031,22.65625 35.9667969,22.6367188 L31.6894531,22.6074219 L28.4472656,16.0644531 L28.3398438,16.6015625 C28.28125,16.8945312 28.0078125,18.3007812 27.734375,19.7265625 C27.4609375,21.1523438 27.2167969,22.3925781 27.1875,22.4902344 C27.1386719,22.6464844 26.8847656,22.65625 23.5839844,22.65625 C21.3964844,22.65625 20.0097656,22.6171875 19.9707031,22.5585938 Z" id="Path"></path>
                <path d="M46.7480469,22.5878906 C46.7285156,22.5390625 47.1191406,20.4003906 47.6269531,17.8222656 L48.5449219,13.1347656 L46.3867188,6.98242188 C45.2050781,3.60351563 44.2382812,0.771484375 44.2382812,0.712890625 C44.2382812,0.615234375 45.0878906,0.5859375 48.1835938,0.5859375 L52.1289062,0.5859375 L52.8710938,2.6953125 C53.28125,3.84765625 53.6132812,4.84375 53.6132812,4.89257812 C53.6132812,5.14648437 53.90625,4.79492188 55.3808594,2.78320312 L56.9824219,0.595703125 L60.9667969,0.5859375 C63.1542969,0.5859375 64.9414062,0.60546875 64.9414062,0.634765625 C64.9414062,0.6640625 62.8710938,3.48632812 60.3320312,6.90429687 L55.7324219,13.1347656 L54.8144531,17.8222656 C54.3164063,20.4003906 53.90625,22.5390625 53.90625,22.5878906 C53.90625,22.6269531 52.3046875,22.65625 50.3515625,22.65625 C48.3886719,22.65625 46.7675781,22.6269531 46.7480469,22.5878906 Z" id="Path"></path>
                <path d="M62.0117188,22.5 C62.0117188,22.421875 62.9589844,17.4902344 64.1113281,11.5332031 C65.2636719,5.5859375 66.2109375,0.693359375 66.2109375,0.654296875 C66.2109375,0.615234375 69.1601562,0.5859375 72.7539062,0.5859375 C76.3574219,0.5859375 79.296875,0.625 79.296875,0.6640625 C79.296875,0.712890625 79.0527344,1.9921875 78.7597656,3.515625 C78.4667969,5.0390625 78.2226562,6.31835937 78.2226562,6.3671875 C78.2226562,6.40625 76.8847656,6.4453125 75.2441406,6.4453125 L72.2753906,6.4453125 L72.2070312,6.81640625 C72.1777344,7.01171875 72.0898438,7.48046875 72.0117188,7.84179688 C71.9335938,8.21289062 71.875,8.5546875 71.875,8.60351562 C71.875,8.65234375 73.0175781,8.69140625 74.6972656,8.69140625 C76.2597656,8.69140625 77.5488281,8.73046875 77.578125,8.76953125 C77.6074219,8.81835938 77.3925781,10.078125 77.0996094,11.5820313 C76.8066406,13.0761719 76.5625,14.3164063 76.5625,14.3359375 C76.5625,14.3457031 75.2539062,14.3554688 73.6523438,14.3554688 L70.7421875,14.3554688 L70.5664062,15.2636719 C70.46875,15.7519531 70.3710938,16.2792969 70.3417969,16.4355469 L70.2929688,16.6992188 L73.3300781,16.6992188 C76.1425781,16.6992188 76.3671875,16.7089844 76.3671875,16.8652344 C76.3671875,16.9628906 76.1230469,18.3007812 75.8203125,19.84375 L75.2734375,22.65625 L68.6425781,22.65625 C62.7148438,22.65625 62.0117188,22.6367188 62.0117188,22.5 Z" id="Path"></path>
            </g>
            <g id="layer102" transform="translate(0.488281, 0.000000)" fill="#F9E900">
                <path d="M78.125,55.2539062 C78.125,54.7851562 78.6230469,48.7890625 78.671875,48.7207031 C78.7011719,48.671875 79.1113281,48.4375 79.5898438,48.1835938 C83.1738281,46.3378906 86.9726562,42.9980469 89.2480469,39.6972656 C91.9042969,35.8496094 93.2617188,31.1621094 92.8808594,27.1386719 C92.5097656,23.2519531 91.2792969,20.1074219 88.9453125,17.0703125 C84.7851563,11.6796875 76.7480469,7.6171875 66.40625,5.6640625 C65.5175781,5.49804688 64.6875,5.34179688 64.5507812,5.32226562 C64.0136719,5.21484375 60.1855469,4.7265625 59.2773438,4.6484375 C49.6777344,3.77929688 39.2089844,4.26757813 28.90625,6.06445312 C19.4042969,7.72460937 10.4003906,10.2636719 2.29492188,13.5742188 C1.22070312,14.0136719 0.263671875,14.3945312 0.166015625,14.4238281 C-0.009765625,14.4726562 -0.009765625,14.4238281 0.048828125,13.5644531 C0.15625,11.9140625 -0.029296875,12.1484375 1.8359375,11.25 C8.06640625,8.2421875 13.8964844,6.06445312 20.6542969,4.21875 C27.4511719,2.35351563 34.3066406,1.11328125 41.5039063,0.439453125 C47.7148438,-0.146484375 55.9863281,-0.146484375 61.4746094,0.439453125 C67.8808594,1.11328125 73.3886719,2.25585938 78.046875,3.8671875 C87.734375,7.2265625 94.2871094,12.3046875 97.4707031,18.9160156 C98.1738281,20.3808594 98.8769531,22.578125 99.1796875,24.2773438 C99.4238281,25.6152344 99.4433594,25.9472656 99.453125,28.3691406 C99.4628906,30.4785156 99.4238281,31.2402344 99.2773438,32.1777344 C98.1933594,39.2285156 94.0820312,45.7421875 87.6367188,50.6152344 C85.1464844,52.5 81.9921875,54.1796875 79.1601563,55.1367188 C78.6230469,55.3222656 78.1738281,55.46875 78.1542969,55.46875 C78.1347656,55.46875 78.125,55.3710938 78.125,55.2539062 Z" id="Path"></path>
            </g>
        </g>
    </g>
</svg>